<?xml version="1.0" encoding="utf-8"?>
<!-- Generator: Adobe Illustrator 24.0.0, SVG Export Plug-In . SVG Version: 6.00 Build 0)  -->
<svg version="1.1" id="Warstwa_1" xmlns="http://www.w3.org/2000/svg" xmlns:xlink="http://www.w3.org/1999/xlink" x="0px" y="0px"
	 width="2000px" height="2000px" viewBox="0 0 2000 2000" style="enable-background:new 0 0 2000 2000;" xml:space="preserve">
<style type="text/css">
	.st0{fill:none;}
</style>
<path d="M1000.3,1999.7c-134.9,0-265.9-26.4-389.2-78.6c-119.1-50.4-226-122.4-317.8-214.2c-91.8-91.8-163.9-198.7-214.2-317.8
	C27,1265.8,0.5,1134.9,0.5,999.9S27,734.1,79.1,610.8c50.4-119.1,122.4-226,214.2-317.8S492,129.1,611.1,78.8
	C734.4,26.6,865.3,0.2,1000.3,0.2s265.9,26.4,389.2,78.6c119.1,50.4,226,122.4,317.8,214.2c91.8,91.8,163.9,198.7,214.2,317.8
	c52.2,123.3,78.6,254.2,78.6,389.2s-26.4,265.9-78.6,389.2c-50.4,119.1-122.4,226-214.2,317.8c-91.8,91.8-198.7,163.9-317.8,214.2
	C1266.1,1973.2,1135.2,1999.7,1000.3,1999.7z M1000.3,165.1c-460.3,0-834.8,374.5-834.8,834.8s374.5,834.8,834.8,834.8
	s834.8-374.5,834.8-834.8S1460.6,165.1,1000.3,165.1z"/>
<path class="st0" d="M1517.1,544.2c-18.7,222.8-134.6,434.6-330.6,567.3l20.3-89.8c52.7-206.9,22-422.1-86.5-606.1
	c-5.8-9.8-11.7-19.3-17.8-28.7c-17.2-26.6-35.8-51.9-55.7-76c-15.4-1-31-1.6-46.7-1.6c-379,0-687.4,308.4-687.4,687.4
	s308.4,687.4,687.4,687.4s687.4-308.4,687.4-687.4C1687.6,823.6,1623.2,665.2,1517.1,544.2z"/>
<path d="M1120.3,415.7c108.5,184,139.2,399.2,86.5,606.1l-20.3,89.8c196-132.7,311.9-344.5,330.6-567.3
	c-116.5-132.9-283.2-220.6-470.3-233.2c19.9,24.1,38.5,49.4,55.7,76C1108.7,396.4,1114.6,405.9,1120.3,415.7z"/>
<path class="st0" d="M986.3,1216.6l89.1-23.1c208.1-47.8,385.4-173.6,499.3-354.3c6-9.6,11.8-19.2,17.4-28.9
	c15.3-26.6,29-53.9,41-81.8c-28.8-67.7-68.1-129.8-115.9-184.4c-116.5-132.9-283.2-220.6-470.3-233.2c-15.4-1-31-1.6-46.7-1.6
	c-44.9,0-88.8,4.3-131.3,12.6c183.3,129.3,307.4,337.3,322.2,574.3l-67-63.1C972.7,682.6,771.8,599.6,558.2,599.6
	c-11.3,0-22.6,0.2-33.8,0.7c-30.9,1.3-61.5,4.3-91.7,9c-33.3,48.6-60.5,101.6-80.5,158.1c204-91,445.1-91.7,655.8,15.6l-88.4,25.6
	C713,862.3,539.4,993.2,430.8,1177.1c-5.8,9.8-11.3,19.5-16.6,29.4c-14,26.1-26.4,52.7-37.4,79.8c25,53.7,56.8,103.6,94.2,148.7
	C497.5,1215,619.2,1009,817.3,883l-22.8,89.1c-58.7,205.3-34.2,421.3,68.9,608.3c5.5,9.9,11.1,19.6,16.9,29.2
	c14.9,24.6,31,48.2,48.2,70.8c23.6,2.5,47.5,3.7,71.7,3.7c35.7,0,70.7-2.7,104.9-8c-175.6-134.7-290.8-343.9-298.6-578.1l65.1,65
	c146.9,154.9,345.4,243.6,558.9,249.9c11.3,0.3,22.6,0.4,33.8,0.3c29.2-0.3,58.1-2.3,86.7-5.7c35.4-47.4,64.8-99.4,87.2-155
	C1432.4,1336.2,1192.7,1329.4,986.3,1216.6z"/>
<path d="M558.2,599.6c213.6,0.1,414.5,83,565.9,233.6l67,63.1c-14.7-237-138.9-445-322.2-574.3C688.5,357,533,462.8,432.7,609.2
	c30.2-4.7,60.8-7.7,91.7-9C535.6,599.8,546.8,599.6,558.2,599.6z"/>
<path d="M430.8,1177.1C539.4,993.2,713,862.3,919.6,808.5l88.4-25.6c-210.7-107.3-451.8-106.6-655.8-15.6
	c-25.5,71.8-39.4,149.1-39.4,229.5c0,103.4,23,201.5,64,289.6c10.9-27.1,23.4-53.8,37.4-79.8C419.5,1196.7,425,1186.9,430.8,1177.1z
	"/>
<path d="M863.3,1580.4c-103.2-187-127.6-403-68.9-608.3l22.8-89.1c-198.1,126-319.8,332-346.2,552.1
	c111.8,134.8,274.1,226.3,457.5,245.4c-17.2-22.6-33.3-46.2-48.2-70.8C874.4,1600.1,868.8,1590.4,863.3,1580.4z"/>
<path d="M1430.6,1412.9c-213.5-6.2-412-95-558.9-249.9l-65.1-65c7.8,234.2,123,443.4,298.6,578.1c181.8-28,340.4-127.4,446-268.7
	c-28.6,3.4-57.5,5.3-86.7,5.7C1453.1,1413.3,1441.9,1413.2,1430.6,1412.9z"/>
<path d="M1633.1,728.6c-12,27.8-25.7,55.1-41,81.8c-5.6,9.7-11.4,19.3-17.4,28.9c-113.9,180.7-291.2,306.5-499.3,354.3l-89.1,23.1
	c206.4,112.8,446.1,119.6,652,35.8c31.8-79.1,49.3-165.4,49.3-255.7C1687.6,901.7,1668.2,811,1633.1,728.6z"/>
</svg>
