<svg width="70" height="70" viewBox="0 0 70 70" fill="none" xmlns="http://www.w3.org/2000/svg">
<path d="M35 70C30.2781 70 25.6936 69.0723 21.3753 67.2501C17.2067 65.4862 13.4667 62.9651 10.2508 59.7492C7.03495 56.5333 4.51385 52.7933 2.74991 48.6247C0.923571 44.3064 0 39.726 0 35C0 30.274 0.927731 25.6936 2.74991 21.3753C4.51385 17.2067 7.03495 13.4667 10.2508 10.2508C13.4667 7.03495 17.2067 4.51385 21.3753 2.74991C25.6936 0.923571 30.274 0 35 0C39.726 0 44.3064 0.927731 48.6248 2.74991C52.7933 4.51385 56.5333 7.03495 59.7492 10.2508C62.9609 13.4625 65.4862 17.2067 67.2501 21.3753C69.0764 25.6936 70 30.274 70 35C70 39.726 69.0723 44.3064 67.2501 48.6247C65.4862 52.7933 62.9651 56.5333 59.7492 59.7492C56.5375 62.9609 52.7933 65.4862 48.6248 67.2501C44.3064 69.0723 39.726 70 35 70ZM35 5.77856C18.8833 5.77856 5.7744 18.8874 5.7744 35.0042C5.7744 51.1209 18.8833 64.2298 35 64.2298C51.1167 64.2298 64.2256 51.1209 64.2256 35.0042C64.2256 18.8874 51.1167 5.77856 35 5.77856Z" fill="#7143D2"/>
<path d="M55.7181 28.3644C55.5225 28.7055 55.3187 29.0425 55.1065 29.3795C51.121 35.703 44.914 40.1087 37.6294 41.7811L34.5093 42.5882C42.6175 47.0189 52.1944 46.7776 59.9157 42.6298C61.5673 36.1898 60.7769 29.4377 57.8856 23.6301C57.3156 25.2567 56.5917 26.8418 55.7181 28.3644Z" fill="#7143D2"/>
<path d="M51.2456 49.4692C50.8546 49.4734 50.4593 49.4692 50.0641 49.4609C42.5923 49.2446 35.6448 46.1369 30.4986 40.7119L28.2188 38.4363C28.5266 47.672 33.6021 55.7928 41.0988 60.3358C47.4848 58.4845 52.8972 54.37 56.4293 48.9284C54.736 49.2654 53.0012 49.4484 51.2456 49.4692Z" fill="#7143D2"/>
<path d="M30.7982 56.3462C30.5944 56.0092 30.3989 55.668 30.2075 55.3227C26.5964 48.7745 25.7394 41.2154 27.7946 34.0265L28.5933 30.9064C20.797 35.8654 16.3789 44.3647 16.2832 53.1303C21.1257 57.6858 27.4201 60.2568 33.8976 60.5314C32.7494 59.25 31.7093 57.848 30.7982 56.3462Z" fill="#7143D2"/>
<path d="M14.4817 42.2346C14.6689 41.8894 14.8603 41.5441 15.0641 41.2029C18.8666 34.767 24.9447 30.1825 32.1751 28.3021L35.2704 27.4034C27.0373 23.2099 17.4729 23.73 9.87631 28.0982C8.41191 34.584 9.39788 41.3111 12.4557 47.0314C12.9757 45.3881 13.6538 43.7823 14.4817 42.2346Z" fill="#7143D2"/>
<path d="M18.3425 21.0092C18.7336 20.9925 19.1288 20.9842 19.524 20.9842C27 20.9842 34.0349 23.8922 39.335 29.1632L41.6814 31.3723C41.1073 22.1491 35.7988 14.1781 28.1731 9.85559C21.8454 11.8941 16.5536 16.1583 13.1797 21.6998C14.8604 21.3129 16.5869 21.084 18.3425 21.0092Z" fill="#7143D2"/>
<path d="M38.5818 13.5457C38.794 13.8744 39.002 14.2113 39.2017 14.5525C43 20.9925 44.0775 28.5267 42.2303 35.7697L41.5231 38.9106C49.1738 33.727 53.3423 25.1028 53.1884 16.3414C48.2128 11.9232 41.8476 9.53524 35.3618 9.44788C36.5516 10.7001 37.6291 12.0688 38.5818 13.5457Z" fill="#7143D2"/>
</svg>
